<svg xmlns="http://www.w3.org/2000/svg" viewBox="0 0 480 480"><path d="M388.966 120c-11.347-41.523-60.558-72-115.862-72-54.646 0-95.54 31.219-107.586 72-33.58.434-65.225 15.446-74.483 40-2.534-.183-5.686 0-8.276 0C36.122 160 0 192.722 0 232s36.122 72 82.759 72h289.655C431.703 302.043 480 257.797 480 208c0-45.519-38.983-80.317-91.034-88z" fill="#dcdcda"/><path d="M388.966 248c-11.347-41.523-60.558-72-115.862-72-54.646 0-95.54 31.219-107.586 72-33.58.434-65.225 15.446-74.483 40-2.534-.183-5.686 0-8.276 0C36.122 288 0 320.722 0 360s36.122 72 82.759 72h289.655C431.703 430.043 480 385.797 480 336c0-45.519-38.983-80.317-91.034-88z" fill="#c9c9c0"/><path d="M475.316 309.751c-6 47.51-46.744 82.924-94.626 82.249H49.655A97.215 97.215 0 013.39 380.367C13.358 409.964 44.5 432 82.759 432h289.655C431.703 430.043 480 385.797 480 336a76.19 76.19 0 00-4.684-26.249z" fill="#abaea7"/></svg>