<svg width="20" height="21" fill="none" xmlns="http://www.w3.org/2000/svg"><path d="M13.492 2.167H6.508C3.975 2.167 2.5 3.65 2.5 6.192V14.8c0 2.583 1.475 4.033 4.008 4.033h6.984c2.575 0 4.008-1.45 4.008-4.033V6.192c0-2.542-1.433-4.025-4.008-4.025z" fill="#494F68"/><path fill-rule="evenodd" clip-rule="evenodd" d="M6.733 6.042v.008a.65.65 0 000 1.3h2.491c.36 0 .651-.292.651-.66a.65.65 0 00-.65-.648H6.732zm6.534 5.075H6.733a.65.65 0 010-1.301h6.534a.652.652 0 010 1.3zm0 3.808H6.733a.647.647 0 01-.625-.3.662.662 0 01.625-1.008h6.534a.654.654 0 01.583.658c0 .332-.25.617-.583.65z" fill="#fff"/></svg>